<?xml version="1.0" encoding="utf-8"?>
<!-- Generator: Adobe Illustrator 25.0.1, SVG Export Plug-In . SVG Version: 6.00 Build 0)  -->
<svg version="1.1" id="Layer_1" xmlns="http://www.w3.org/2000/svg" xmlns:xlink="http://www.w3.org/1999/xlink" x="0px" y="0px"
	 viewBox="0 0 84.1 15.6" style="enable-background:new 0 0 84.1 15.6;" xml:space="preserve">
<style type="text/css">
	.st0{fill:#FF4438;}
	.st1{fill:#FFFFFF;}
	.st2{fill-rule:evenodd;clip-rule:evenodd;fill:#FFFFFF;}
</style>
<g>
	<path class="st0" d="M80.8,15.6H3.3c-1.8,0-3.3-1.5-3.3-3.3v-9C0,1.5,1.5,0,3.3,0h77.5c1.8,0,3.3,1.5,3.3,3.3v9
		C84.1,14.1,82.6,15.6,80.8,15.6z"/>
	<g>
		<path class="st1" d="M23.3,9l0.2-1.5h2L25.3,9H23.3z"/>
		<path class="st1" d="M25.9,10.9l1.4-6.6h1.8c0.7,0,1.2,0.1,1.8,0.3c0.5,0.2,0.9,0.5,1.2,1c0.3,0.4,0.4,1,0.4,1.6
			c0,0.5-0.1,1-0.3,1.5s-0.5,0.8-0.8,1.2c-0.3,0.3-0.7,0.6-1.2,0.8s-1,0.3-1.5,0.3h-2.8C25.9,11,25.9,10.9,25.9,10.9z M28,9.3h0.8
			c0.3,0,0.6,0,0.8-0.1C29.8,9.1,30,9,30.2,8.8s0.3-0.4,0.4-0.6c0.1-0.2,0.1-0.5,0.1-0.8s-0.1-0.6-0.2-0.8s-0.3-0.4-0.6-0.5
			C29.6,6,29.3,5.9,29,5.9h-0.3L28,9.3z"/>
		<path class="st1" d="M35.4,11.1c-0.5,0-1-0.1-1.3-0.3c-0.4-0.2-0.7-0.5-0.9-0.8s-0.3-0.7-0.3-1.2c0-0.4,0.1-0.8,0.2-1.1
			c0.1-0.3,0.3-0.6,0.6-0.9s0.6-0.5,0.9-0.6C35,6,35.3,5.9,35.8,5.9S36.7,6,37,6.1c0.3,0.2,0.6,0.4,0.8,0.7c0.2,0.3,0.3,0.6,0.4,1
			c0,0.4,0,0.8-0.1,1.2h-3.6c0,0.2,0.1,0.3,0.2,0.4c0.1,0.1,0.3,0.2,0.5,0.3s0.4,0.1,0.6,0.1c0.3,0,0.5,0,0.7-0.1s0.5-0.1,0.7-0.3
			l0.3,1.2c-0.2,0.1-0.4,0.2-0.6,0.2c-0.2,0.1-0.5,0.1-0.7,0.2C35.8,11.1,35.6,11.1,35.4,11.1z M34.7,7.8h1.8c0-0.2-0.1-0.4-0.2-0.5
			c-0.2-0.1-0.4-0.2-0.6-0.2S35.2,7.2,35,7.3S34.7,7.6,34.7,7.8z"/>
		<path class="st1" d="M19.6,11.1c-0.5,0-1-0.1-1.3-0.3c-0.4-0.2-0.7-0.5-0.9-0.8s-0.3-0.7-0.3-1.2c0-0.4,0.1-0.8,0.2-1.1
			c0.1-0.3,0.3-0.6,0.6-0.9s0.6-0.5,0.9-0.6C19.2,6,19.5,5.9,20,5.9s0.9,0.1,1.2,0.2c0.3,0.2,0.6,0.4,0.8,0.7c0.2,0.3,0.3,0.6,0.4,1
			c0,0.4,0,0.8-0.1,1.2h-3.6c0,0.2,0.1,0.3,0.2,0.4c0.1,0.1,0.3,0.2,0.5,0.3s0.4,0.1,0.6,0.1c0.3,0,0.5,0,0.7-0.1s0.5-0.1,0.7-0.3
			l0.3,1.2c-0.2,0.1-0.4,0.2-0.6,0.2c-0.2,0.1-0.5,0.1-0.7,0.2C20,11.1,19.8,11.1,19.6,11.1z M18.9,7.8h1.8c0-0.2-0.1-0.4-0.2-0.5
			c-0.2-0.1-0.4-0.2-0.6-0.2s-0.5,0.1-0.7,0.2S18.9,7.6,18.9,7.8z"/>
		<path class="st1" d="M39.4,10.9L38.7,6h1.8l0.2,3.8l-0.4-0.1L42.1,6H44l-2.7,4.9H39.4z"/>
		<path class="st1" d="M43.7,10.9l1.5-6.8h1.7l-1.5,6.8H43.7z"/>
		<path class="st1" d="M49.3,11.1c-0.5,0-1-0.1-1.3-0.3c-0.4-0.2-0.7-0.5-0.9-0.8s-0.3-0.7-0.3-1.2c0-0.4,0.1-0.8,0.2-1.1
			c0.1-0.3,0.3-0.6,0.6-0.9s0.6-0.5,0.9-0.6C48.9,6.1,49.2,6,49.6,6c0.5,0,0.9,0.1,1.2,0.2c0.3,0.2,0.6,0.4,0.8,0.7
			c0.2,0.3,0.3,0.6,0.4,1c0,0.4,0,0.8-0.1,1.2h-3.6c0,0.2,0.1,0.3,0.2,0.4c0.1,0.1,0.3,0.2,0.5,0.3s0.4,0.1,0.6,0.1
			c0.3,0,0.5,0,0.7-0.1s0.5-0.1,0.7-0.3l0.3,1.2c-0.2,0.1-0.4,0.2-0.6,0.2c-0.2,0-0.4,0.1-0.7,0.1C49.8,11.1,49.5,11.1,49.3,11.1z
			 M48.6,7.8h1.8c0-0.2-0.1-0.4-0.2-0.5c-0.2-0.1-0.4-0.2-0.6-0.2S49.1,7.2,49,7.3S48.7,7.6,48.6,7.8z"/>
		<path class="st1" d="M52.5,7.4l0.3-1.3h1l-0.3,1.3C53.5,7.4,52.5,7.4,52.5,7.4z M54.6,11.1c-0.6,0-1-0.2-1.3-0.5S52.9,9.8,53,9.2
			l1-4.5h1.7l-0.3,1.4h1.1l-0.3,1.3h-1.1l-0.3,1.5c0,0.2,0,0.4,0,0.5c0.1,0.1,0.2,0.2,0.4,0.2c0.1,0,0.2,0,0.3,0s0.2-0.1,0.3-0.1
			l-0.1,1.4c-0.1,0.1-0.3,0.1-0.5,0.2C55,11.1,54.8,11.1,54.6,11.1z"/>
		<path class="st1" d="M62.4,11.1c-0.5,0-1-0.1-1.4-0.2s-0.8-0.4-1.2-0.7S59.2,9.5,59,9.1s-0.3-0.9-0.3-1.4s0.1-1,0.3-1.4
			s0.4-0.8,0.8-1.1s0.7-0.5,1.2-0.7c0.4-0.2,0.9-0.2,1.4-0.2c0.2,0,0.5,0,0.7,0.1c0.3,0,0.5,0.1,0.8,0.2c0.3,0.1,0.5,0.2,0.7,0.4
			L64,5.9c-0.2-0.2-0.5-0.3-0.7-0.3c-0.3-0.1-0.5-0.1-0.8-0.1s-0.7,0.1-0.9,0.2c-0.4,0-0.6,0.2-0.8,0.3c-0.2,0.2-0.3,0.4-0.4,0.7
			s-0.2,0.6-0.2,0.9c0,0.5,0.1,0.9,0.3,1.2s0.5,0.6,0.8,0.7c0.4,0.2,0.8,0.3,1.2,0.3c0.2,0,0.4,0,0.5-0.1c0.2,0,0.3-0.1,0.4-0.1V8.4
			H62V7.3h2.6v3.3c-0.2,0.1-0.4,0.2-0.7,0.3s-0.5,0.1-0.8,0.2C62.9,11.1,62.7,11.1,62.4,11.1z"/>
		<path class="st1" d="M66.8,5.4c-0.2,0-0.4-0.1-0.6-0.2S66,4.9,66,4.6c0-0.2,0.1-0.4,0.2-0.6c0.2-0.1,0.4-0.2,0.6-0.2
			s0.4,0.1,0.6,0.2c0.2,0.1,0.2,0.3,0.2,0.6c0,0.2-0.1,0.4-0.2,0.6C67.2,5.3,67,5.4,66.8,5.4z M66.1,10.9V6.2h1.4V11h-1.4V10.9z"/>
		<path class="st1" d="M68.8,10.9V6.2h1.4v0.6c0.2-0.3,0.4-0.5,0.6-0.6S71.3,6,71.6,6c0.1,0,0.2,0,0.3,0c0.1,0,0.2,0,0.2,0l-0.2,1.4
			c-0.1,0-0.2-0.1-0.3-0.1s-0.2,0-0.3,0c-0.3,0-0.6,0.1-0.8,0.3s-0.3,0.5-0.3,0.8v2.5C70.2,10.9,68.8,10.9,68.8,10.9z"/>
		<path class="st1" d="M73.6,5.4c-0.2,0-0.4-0.1-0.6-0.2s-0.2-0.3-0.2-0.6c0-0.2,0.1-0.4,0.2-0.6c0.2-0.1,0.4-0.2,0.6-0.2
			S74,3.9,74.2,4s0.2,0.3,0.2,0.6c0,0.2-0.1,0.4-0.2,0.6C74,5.3,73.8,5.4,73.6,5.4z M72.9,10.9V6.2h1.4V11h-1.4V10.9z"/>
		<path class="st1" d="M77.3,11.1c-0.4,0-0.8-0.1-1.2-0.2c-0.4-0.1-0.7-0.3-0.9-0.5l0.4-1c0.2,0.2,0.5,0.3,0.8,0.4
			c0.3,0.1,0.6,0.1,0.8,0.1c0.3,0,0.5,0,0.6-0.1S78,9.6,78,9.5s-0.1-0.2-0.2-0.3S77.4,9.1,77.1,9c-0.6-0.1-1.1-0.3-1.4-0.5
			s-0.4-0.6-0.4-1c0-0.3,0.1-0.6,0.3-0.8c0.2-0.2,0.4-0.4,0.7-0.5C76.7,6,77,6,77.4,6s0.7,0.1,1.1,0.2c0.3,0.1,0.6,0.2,0.9,0.4
			l-0.4,1c-0.1-0.1-0.3-0.2-0.4-0.3c-0.2-0.1-0.3-0.1-0.5-0.2S77.6,7,77.4,7S77,7,76.8,7.1c-0.1,0.1-0.2,0.2-0.2,0.3
			c0,0.1,0.1,0.2,0.2,0.3s0.4,0.1,0.7,0.2c0.7,0.1,1.1,0.3,1.4,0.5s0.4,0.5,0.4,1c0,0.3-0.1,0.6-0.3,0.8c-0.2,0.2-0.4,0.4-0.7,0.5
			S77.7,11.1,77.3,11.1z M77.2,13.1c-0.2,0-0.5,0-0.7-0.1s-0.4-0.1-0.5-0.2l0.3-0.6c0.1,0.1,0.2,0.2,0.4,0.2c0.2,0,0.3,0.1,0.5,0.1
			c0.1,0,0.2,0,0.3-0.1s0.1-0.1,0.1-0.2c0-0.1-0.1-0.2-0.2-0.2s-0.3,0-0.5,0l-0.3-0.5l0.3-0.7h0.7l-0.2,0.5c0.3,0,0.6,0.1,0.8,0.3
			c0.2,0.1,0.3,0.3,0.3,0.6c0,0.2-0.1,0.4-0.2,0.5S78,12.9,77.8,13C77.7,13,77.4,13.1,77.2,13.1z"/>
	</g>
	<path class="st2" d="M13.6,2L13.6,2c1.4,0.1,2.5,0.5,2.8,1.7c0.2,0.7,0,1.3-0.2,1.8c-0.2,0.5-0.5,0.9-0.9,1.3
		c-0.7,0.8-1.5,1.4-2.4,2C12,9.4,11,9.9,10,10.3c-0.5,0.2-1.1,0.4-1.7,0.5c-0.6,0.1-1.3,0.2-2,0.1c-0.6-0.1-1.1-0.4-1.2-1.1
		C5.1,9.2,5.4,8.7,5.7,8.2c0.6-0.9,1.4-1.5,2.4-2c0.9-0.5,2-1,3.5-0.9c-1.2,0.1-2,0.5-2.8,1c-0.7,0.4-1.5,1.1-1.7,2
		C6.9,9,7.2,9.4,7.6,9.6C8,9.8,8.7,9.8,9.2,9.7c1.1-0.1,2.1-0.5,2.8-0.9c1.2-0.7,2.2-1.5,2.9-2.7c0.2-0.4,0.5-0.8,0.6-1.3
		c0.3-1.3-0.4-2.1-1.3-2.3c-1-0.3-2.3-0.1-3.3,0.1C9,3.1,7.4,4,6,5.1C5.3,5.7,4.7,6.3,4.2,7C3.6,7.7,3.1,8.5,2.8,9.4
		c-0.2,0.5-0.3,1-0.2,1.6c0.2,1.6,1.8,2,3.7,1.9c2.3-0.1,4.1-0.9,5.7-1.8c-1.4,0.9-3.2,1.7-5.3,2.1c-2.3,0.4-4.7-0.1-4.9-2.2v-0.4
		c0.2-1.5,0.9-2.5,1.5-3.4c0.7-1,1.6-1.7,2.5-2.4c1-0.7,2-1.3,3.2-1.8c1.3-0.5,2.6-0.9,4-0.9H13.6z"/>
	<path class="st2" d="M14.2,4.7c-0.1,0.3-0.3,0.6-0.4,0.9c0.4,0,0.8,0,1.2,0.1c-0.5,0.2-1,0.3-1.4,0.5C13.3,6.4,13.2,6.7,13,7
		c-0.2-0.2-0.3-0.4-0.4-0.6c-0.5,0.1-0.9,0.3-1.4,0.5C11.6,6.6,12,6.3,12.4,6c-0.1-0.2-0.3-0.4-0.4-0.6c0.3,0,0.5,0,0.8,0
		c0.1,0,0.2,0,0.3,0c0.1,0,0.2-0.1,0.3-0.2C13.6,5.1,13.9,4.9,14.2,4.7"/>
</g>
</svg>
